<?xml version="1.0" encoding="UTF-8"?>
<svg xmlns="http://www.w3.org/2000/svg" viewBox="0 0 88.2 88.2">
  <defs>
    <style>
      .cls-1 {
        fill: #39455d;
      }
    </style>
  </defs>
  <g id="Ebene_1" data-name="Ebene 1" shape-rendering="auto">
    <path class="cls-1" d="m52.2,2.7h0c0,.5.4.9.9.9h0c.5,0,.9-.4.9-.9V.9c0-.5-.4-.9-.9-.9h-3.6c-.5,0-.9.4-.9.9h0c0,.5.4.9.9.9h1.8c.5,0,.9.4.9.9Z"/>
    <rect class="cls-1" x="55.8" y="0" width="1.8" height="1.8" rx=".9" ry=".9"/>
    <rect class="cls-1" x="63" y="0" width="1.8" height="1.8" rx=".9" ry=".9"/>
    <path class="cls-1" d="m26.1,3.6h0c.5,0,.9-.4.9-.9h0c0-.5.4-.9.9-.9h1.8c.5,0,.9-.4.9-.9h0C30.6.4,30.2,0,29.7,0h-5.4c-.5,0-.9.4-.9.9h0c0,.5.4.9.9.9h0c.5,0,.9.4.9.9h0c0,.5.4.9.9.9Z"/>
    <path class="cls-1" d="m58.5,1.8h0c-.5,0-.9.4-.9.9v1.8c0,.5.4.9.9.9h0c.5,0,.9-.4.9-.9v-1.8c0-.5-.4-.9-.9-.9Z"/>
    <rect class="cls-1" x="18" y="3.6" width="1.8" height="1.8" rx=".9" ry=".9"/>
    <path class="cls-1" d="m21.6,4.5c0,.5.4.9.9.9h1.8c.5,0,.9-.4.9-.9h0c0-.5-.4-.9-.9-.9h0c-.5,0-.9-.4-.9-.9h0c0-.5-.4-.9-.9-.9h0c-.5,0-.9.4-.9.9v1.8Z"/>
    <path class="cls-1" d="m29.7,3.6c-.5,0-.9.4-.9.9v1.8c0,.5.4.9.9.9h1.8c.5,0,.9-.4.9-.9h0c0-.5.4-.9.9-.9h0c.5,0,.9-.4.9-.9h0c0-.5.4-.9.9-.9h1.8c.5,0,.9-.4.9-.9h0c0-.5-.4-.9-.9-.9h0c-.5,0-.9-.4-.9-.9h0c0-.5-.4-.9-.9-.9h0c-.5,0-.9.4-.9.9h0c0,.5-.4.9-.9.9h-1.8c-.5,0-.9.4-.9.9h0c0,.5-.4.9-.9.9h0Z"/>
    <path class="cls-1" d="m70.2,5.4v.9c0,.5.4.9.9.9h0c.5,0,.9-.4.9-.9h0c0-.5.4-.9.9-.9h0c.5,0,.9-.4.9-.9V.9c0-.5-.4-.9-.9-.9h0c-.5,0-.9.4-.9.9h0c0,.5-.4.9-.9.9h-1.8c-.5,0-.9.4-.9.9h0c0,.5.4.9.9.9h0c.5,0,.9.4.9.9v.9Z"/>
    <path class="cls-1" d="m17.1,5.4c-.5,0-.9-.4-.9-.9v-1.8c0-.5.4-.9.9-.9h3.6c.5,0,.9-.4.9-.9h0C21.6.4,21.2,0,20.7,0h-5.4c-.5,0-.9.4-.9.9v5.4c0,.5.4.9.9.9h1.8c.5,0,.9-.4.9-.9h0c0-.5-.4-.9-.9-.9h0Z"/>
    <rect class="cls-1" x="34.2" y="5.4" width="1.8" height="1.8" rx=".9" ry=".9"/>
    <path class="cls-1" d="m19.8,7.2h-.9c-.5,0-.9.4-.9.9h0c0,.5-.4.9-.9.9h-1.8c-.5,0-.9.4-.9.9v1.8c0,.5.4.9.9.9h0c.5,0,.9-.4.9-.9h0c0-.5.4-.9.9-.9h0c.5,0,.9.4.9.9h0c0,.5.4.9.9.9h0c.5,0,.9-.4.9-.9v-1.8c0-.5.4-.9.9-.9h0c.5,0,.9-.4.9-.9h0c0-.5-.4-.9-.9-.9h-.9Z"/>
    <rect class="cls-1" x="23.4" y="7.2" width="1.8" height="1.8" rx=".9" ry=".9"/>
    <rect class="cls-1" x="36" y="7.2" width="1.8" height="1.8" rx=".9" ry=".9"/>
    <path class="cls-1" d="m54.9,9h0c.5,0,.9-.4.9-.9v-1.8c0-.5-.4-.9-.9-.9h-1.8c-.5,0-.9.4-.9.9h0c0,.5.4.9.9.9h0c.5,0,.9.4.9.9h0c0,.5.4.9.9.9Z"/>
    <rect class="cls-1" x="52.2" y="9" width="1.8" height="1.8" rx=".9" ry=".9"/>
    <path class="cls-1" d="m26.1,12.6h0c.5,0,.9-.4.9-.9v-1.8c0-.5-.4-.9-.9-.9h0c-.5,0-.9.4-.9.9v1.8c0,.5.4.9.9.9Z"/>
    <path class="cls-1" d="m33.3,12.6h0c.5,0,.9-.4.9-.9v-1.8c0-.5-.4-.9-.9-.9h-1.8c-.5,0-.9.4-.9.9h0c0,.5.4.9.9.9h0c.5,0,.9.4.9.9h0c0,.5.4.9.9.9Z"/>
    <rect class="cls-1" x="36" y="10.8" width="1.8" height="1.8" rx=".9" ry=".9"/>
    <rect class="cls-1" x="43.2" y="10.8" width="1.8" height="1.8" rx=".9" ry=".9"/>
    <rect class="cls-1" x="50.4" y="10.8" width="1.8" height="1.8" rx=".9" ry=".9"/>
    <rect class="cls-1" x="54" y="10.8" width="1.8" height="1.8" rx=".9" ry=".9"/>
    <path class="cls-1" d="m30.6,12.6v-.9c0-.5-.4-.9-.9-.9h0c-.5,0-.9.4-.9.9v1.8c0,.5.4.9.9.9h0c.5,0,.9-.4.9-.9v-.9Z"/>
    <rect class="cls-1" x="34.2" y="12.6" width="1.8" height="1.8" rx=".9" ry=".9"/>
    <path class="cls-1" d="m72,15.3h0c0,.5.4.9.9.9h0c.5,0,.9-.4.9-.9v-3.6c0-.5-.4-.9-.9-.9h0c-.5,0-.9.4-.9.9h0c0,.5-.4.9-.9.9h0c-.5,0-.9.4-.9.9h0c0,.5.4.9.9.9h0c.5,0,.9.4.9.9Z"/>
    <path class="cls-1" d="m1.8,14.4h-.9C.4,14.4,0,14.8,0,15.3H0c0,.5.4.9.9.9h1.8c.5,0,.9-.4.9-.9h0c0-.5-.4-.9-.9-.9h-.9Z"/>
    <path class="cls-1" d="m10.8,14.4h-2.7c-.5,0-.9.4-.9.9h0c0,.5.4.9.9.9h3.6c.5,0,.9-.4.9-.9h0c0-.5-.4-.9-.9-.9h-.9Z"/>
    <path class="cls-1" d="m43.2,16.2h.9c.5,0,.9.4.9.9v1.8c0,.5.4.9.9.9h1.8c.5,0,.9-.4.9-.9h0c0-.5-.4-.9-.9-.9h0c-.5,0-.9-.4-.9-.9h0c0-.5.4-.9.9-.9h0c.5,0,.9-.4.9-.9v-5.4c0-.5.4-.9.9-.9h1.8c.5,0,.9-.4.9-.9h0c0-.5-.4-.9-.9-.9h0c-.5,0-.9-.4-.9-.9v-1.8c0-.5-.4-.9-.9-.9h0c-.5,0-.9.4-.9.9h0c0,.5-.4.9-.9.9h-1.8c-.5,0-.9-.4-.9-.9h0c0-.5.4-.9.9-.9h0c.5,0,.9-.4.9-.9V.9c0-.5-.4-.9-.9-.9h0c-.5,0-.9.4-.9.9h0c0,.5-.4.9-.9.9h0c-.5,0-.9-.4-.9-.9h0c0-.5-.4-.9-.9-.9h0c-.5,0-.9.4-.9.9h0c0,.5-.4.9-.9.9h0c-.5,0-.9.4-.9.9v1.8c0,.5.4.9.9.9h0c.5,0,.9-.4.9-.9h0c0-.5.4-.9.9-.9h0c.5,0,.9.4.9.9v1.8c0,.5-.4.9-.9.9h-1.8c-.5,0-.9.4-.9.9v7.2c0,.5.4.9.9.9h2.7Zm-1.8-3.6v-2.7c0-.5.4-.9.9-.9h3.6c.5,0,.9.4.9.9v3.6c0,.5-.4.9-.9.9h-3.6c-.5,0-.9-.4-.9-.9v-.9Z"/>
    <path class="cls-1" d="m55.8,16.2v8.1c0,.5-.4.9-.9.9h0c-.5,0-.9.4-.9.9h0c0,.5.4.9.9.9h1.8c.5,0,.9-.4.9-.9v-1.8c0-.5.4-.9.9-.9h0c.5,0,.9-.4.9-.9h0c0-.5-.4-.9-.9-.9h0c-.5,0-.9-.4-.9-.9v-3.6c0-.5.4-.9.9-.9h0c.5,0,.9.4.9.9v1.8c0,.5.4.9.9.9h0c.5,0,.9.4.9.9v1.8c0,.5.4.9.9.9h0c.5,0,.9-.4.9-.9h0c0-.5.4-.9.9-.9h1.8c.5,0,.9-.4.9-.9h0c0-.5-.4-.9-.9-.9h0c-.5,0-.9-.4-.9-.9v-1.8c0-.5.4-.9.9-.9h3.6c.5,0,.9-.4.9-.9h0c0-.5-.4-.9-.9-.9h0c-.5,0-.9-.4-.9-.9h0c0-.5-.4-.9-.9-.9h0c-.5,0-.9-.4-.9-.9h0c0-.5.4-.9.9-.9h0c.5,0,.9.4.9.9h0c0,.5.4.9.9.9h0c.5,0,.9-.4.9-.9v-1.8c0-.5-.4-.9-.9-.9h-3.6c-.5,0-.9.4-.9.9v1.8c0,.5-.4.9-.9.9h0c-.5,0-.9-.4-.9-.9h0c0-.5-.4-.9-.9-.9h0c-.5,0-.9.4-.9.9h0c0,.5-.4.9-.9.9h0c-.5,0-.9-.4-.9-.9h0c0-.5.4-.9.9-.9h0c.5,0,.9-.4.9-.9h0c0-.5.4-.9.9-.9h1.8c.5,0,.9-.4.9-.9h0c0-.5.4-.9.9-.9h0c.5,0,.9-.4.9-.9h0c0-.5.4-.9.9-.9h0c.5,0,.9-.4.9-.9h0c0-.5-.4-.9-.9-.9h0c-.5,0-.9-.4-.9-.9h0c0-.5-.4-.9-.9-.9h0c-.5,0-.9.4-.9.9v1.8c0,.5-.4.9-.9.9h0c-.5,0-.9-.4-.9-.9h0c0-.5-.4-.9-.9-.9h0c-.5,0-.9.4-.9.9h0c0,.5-.4.9-.9.9h0c-.5,0-.9.4-.9.9v1.8c0,.5-.4.9-.9.9h0c-.5,0-.9.4-.9.9v1.8c0,.5-.4.9-.9.9h0c-.5,0-.9.4-.9.9v2.7Zm6.3,1.8h0c-.5,0-.9-.4-.9-.9h0c0-.5.4-.9.9-.9h0c.5,0,.9.4.9.9h0c0,.5-.4.9-.9.9Z"/>
    <rect class="cls-1" x="3.6" y="16.2" width="1.8" height="1.8" rx=".9" ry=".9"/>
    <rect class="cls-1" x="12.6" y="16.2" width="1.8" height="1.8" rx=".9" ry=".9"/>
    <path class="cls-1" d="m50.4,18.9h0c0,.5.4.9.9.9h0c.5,0,.9-.4.9-.9h0c0-.5.4-.9.9-.9h0c.5,0,.9-.4.9-.9h0c0-.5-.4-.9-.9-.9h-3.6c-.5,0-.9.4-.9.9h0c0,.5.4.9.9.9h0c.5,0,.9.4.9.9Z"/>
    <rect class="cls-1" x="73.8" y="16.2" width="1.8" height="1.8" rx=".9" ry=".9"/>
    <rect class="cls-1" x="7.2" y="18" width="1.8" height="1.8" rx=".9" ry=".9"/>
    <rect class="cls-1" x="10.8" y="18" width="1.8" height="1.8" rx=".9" ry=".9"/>
    <rect class="cls-1" x="68.4" y="18" width="1.8" height="1.8" rx=".9" ry=".9"/>
    <rect class="cls-1" x="0" y="19.8" width="1.8" height="1.8" rx=".9" ry=".9"/>
    <path class="cls-1" d="m5.4,19.8h-.9c-.5,0-.9.4-.9.9h0c0,.5.4.9.9.9h1.8c.5,0,.9-.4.9-.9h0c0-.5-.4-.9-.9-.9h-.9Z"/>
    <rect class="cls-1" x="48.6" y="19.8" width="1.8" height="1.8" rx=".9" ry=".9"/>
    <path class="cls-1" d="m46.8,22.5h0c0-.5-.4-.9-.9-.9h-1.8c-.5,0-.9.4-.9.9h0c0,.5.4.9.9.9h1.8c.5,0,.9-.4.9-.9Z"/>
    <rect class="cls-1" x="75.6" y="21.6" width="1.8" height="1.8" rx=".9" ry=".9"/>
    <rect class="cls-1" x="48.6" y="23.4" width="1.8" height="1.8" rx=".9" ry=".9"/>
    <rect class="cls-1" x="52.2" y="23.4" width="1.8" height="1.8" rx=".9" ry=".9"/>
    <rect class="cls-1" x="63" y="23.4" width="1.8" height="1.8" rx=".9" ry=".9"/>
    <path class="cls-1" d="m86.4,25.2h.9c.5,0,.9-.4.9-.9v-3.6c0-.5-.4-.9-.9-.9h0c-.5,0-.9.4-.9.9v1.8c0,.5-.4.9-.9.9h0c-.5,0-.9.4-.9.9h0c0,.5.4.9.9.9h.9Z"/>
    <rect class="cls-1" x="21.6" y="25.2" width="1.8" height="1.8" rx=".9" ry=".9"/>
    <path class="cls-1" d="m28.8,27.9h0c0,.5-.4.9-.9.9h0c-.5,0-.9.4-.9.9h0c0,.5.4.9.9.9h1.8c.5,0,.9.4.9.9h0c0,.5.4.9.9.9h1.8c.5,0,.9-.4.9-.9h0c0-.5.4-.9.9-.9h0c.5,0,.9.4.9.9v1.8c0,.5.4.9.9.9h1.8c.5,0,.9-.4.9-.9v-1.8c0-.5-.4-.9-.9-.9h0c-.5,0-.9-.4-.9-.9h0c0-.5-.4-.9-.9-.9h0c-.5,0-.9-.4-.9-.9h0c0-.5-.4-.9-.9-.9h0c-.5,0-.9.4-.9.9h0c0,.5-.4.9-.9.9h0c-.5,0-.9-.4-.9-.9h0c0-.5-.4-.9-.9-.9h0c-.5,0-.9-.4-.9-.9h0c0-.5-.4-.9-.9-.9h-1.8c-.5,0-.9.4-.9.9h0c0,.5.4.9.9.9h0c.5,0,.9.4.9.9Z"/>
    <rect class="cls-1" x="36" y="25.2" width="1.8" height="1.8" rx=".9" ry=".9"/>
    <path class="cls-1" d="m48.6,26.1h0c0-.5-.4-.9-.9-.9h-1.8c-.5,0-.9.4-.9.9h0c0,.5.4.9.9.9h1.8c.5,0,.9-.4.9-.9Z"/>
    <path class="cls-1" d="m51.3,25.2h0c-.5,0-.9.4-.9.9h0c0,.5-.4.9-.9.9h0c-.5,0-.9.4-.9.9h0c0,.5.4.9.9.9h3.6c.5,0,.9-.4.9-.9h0c0-.5-.4-.9-.9-.9h0c-.5,0-.9-.4-.9-.9h0c0-.5-.4-.9-.9-.9Z"/>
    <path class="cls-1" d="m25.2,27h-.9c-.5,0-.9.4-.9.9h0c0,.5-.4.9-.9.9h0c-.5,0-.9.4-.9.9h0c0,.5.4.9.9.9h0c.5,0,.9.4.9.9h0c0,.5.4.9.9.9h0c.5,0,.9-.4.9-.9v-1.8c0-.5.4-.9.9-.9h0c.5,0,.9-.4.9-.9h0c0-.5-.4-.9-.9-.9h-.9Z"/>
    <path class="cls-1" d="m39.6,29.7h0c0,.5.4.9.9.9h0c.5,0,.9-.4.9-.9v-1.8c0-.5-.4-.9-.9-.9h-1.8c-.5,0-.9.4-.9.9h0c0,.5.4.9.9.9h0c.5,0,.9.4.9.9Z"/>
    <path class="cls-1" d="m44.1,27h0c-.5,0-.9.4-.9.9v1.8c0,.5.4.9.9.9h0c.5,0,.9-.4.9-.9v-1.8c0-.5-.4-.9-.9-.9Z"/>
    <rect class="cls-1" x="54" y="28.8" width="1.8" height="1.8" rx=".9" ry=".9"/>
    <path class="cls-1" d="m82.8,29.7h0c0,.5.4.9.9.9h1.8c.5,0,.9.4.9.9h0c0,.5.4.9.9.9h0c.5,0,.9-.4.9-.9v-1.8c0-.5-.4-.9-.9-.9h0c-.5,0-.9-.4-.9-.9h0c0-.5-.4-.9-.9-.9h0c-.5,0-.9.4-.9.9h0c0,.5-.4.9-.9.9h0c-.5,0-.9.4-.9.9Z"/>
    <rect class="cls-1" x="0" y="30.6" width="1.8" height="1.8" rx=".9" ry=".9"/>
    <path class="cls-1" d="m9.9,32.4h0c.5,0,.9-.4.9-.9h0c0-.5.4-.9.9-.9h0c.5,0,.9-.4.9-.9h0c0-.5-.4-.9-.9-.9h0c-.5,0-.9-.4-.9-.9h0c0-.5.4-.9.9-.9h1.8c.5,0,.9.4.9.9v1.8c0,.5.4.9.9.9h1.8c.5,0,.9-.4.9-.9v-3.6c0-.5.4-.9.9-.9h1.8c.5,0,.9-.4.9-.9h0c0-.5.4-.9.9-.9h0c.5,0,.9-.4.9-.9h0c0-.5-.4-.9-.9-.9h0c-.5,0-.9-.4-.9-.9h0c0-.5.4-.9.9-.9h1.8c.5,0,.9-.4.9-.9h0c0-.5.4-.9.9-.9h0c.5,0,.9.4.9.9h0c0,.5.4.9.9.9h0c.5,0,.9.4.9.9h0c0,.5-.4.9-.9.9h-1.8c-.5,0-.9.4-.9.9h0c0,.5-.4.9-.9.9h0c-.5,0-.9.4-.9.9h0c0,.5.4.9.9.9h1.8c.5,0,.9-.4.9-.9h0c0-.5.4-.9.9-.9h3.6c.5,0,.9-.4.9-.9h0c0-.5.4-.9.9-.9h0c.5,0,.9.4.9.9v1.8c0,.5.4.9.9.9h0c.5,0,.9-.4.9-.9h0c0-.5.4-.9.9-.9h0c.5,0,.9.4.9.9h0c0,.5.4.9.9.9h0c.5,0,.9-.4.9-.9v-7.2c0-.5-.4-.9-.9-.9h0c-.5,0-.9-.4-.9-.9h0c0-.5-.4-.9-.9-.9h0c-.5,0-.9.4-.9.9h0c0,.5-.4.9-.9.9h0c-.5,0-.9-.4-.9-.9h0c0-.5-.4-.9-.9-.9h-1.8c-.5,0-.9.4-.9.9h0c0,.5.4.9.9.9h0c.5,0,.9.4.9.9h0c0,.5.4.9.9.9h1.8c.5,0,.9.4.9.9h0c0,.5.4.9.9.9h0c.5,0,.9.4.9.9h0c0,.5-.4.9-.9.9h0c-.5,0-.9-.4-.9-.9h0c0-.5-.4-.9-.9-.9h-1.8c-.5,0-.9-.4-.9-.9h0c0-.5-.4-.9-.9-.9h-1.8c-.5,0-.9-.4-.9-.9v-1.8c0-.5-.4-.9-.9-.9h0c-.5,0-.9.4-.9.9h0c0,.5-.4.9-.9.9h-1.8c-.5,0-.9.4-.9.9h0c0,.5-.4.9-.9.9h0c-.5,0-.9-.4-.9-.9h0c0-.5.4-.9.9-.9h0c.5,0,.9-.4.9-.9v-5.4c0-.5-.4-.9-.9-.9h0c-.5,0-.9.4-.9.9v3.6c0,.5-.4.9-.9.9h0c-.5,0-.9.4-.9.9v3.6c0,.5-.4.9-.9.9h0c-.5,0-.9-.4-.9-.9v-3.6c0-.5-.4-.9-.9-.9h0c-.5,0-.9.4-.9.9v1.8c0,.5-.4.9-.9.9h0c-.5,0-.9.4-.9.9v1.8c0,.5.4.9.9.9h3.6c.5,0,.9.4.9.9h0c0,.5-.4.9-.9.9h-1.8c-.5,0-.9.4-.9.9h0c0,.5-.4.9-.9.9h-3.6c-.5,0-.9-.4-.9-.9h0c0-.5.4-.9.9-.9h1.8c.5,0,.9-.4.9-.9h0c0-.5-.4-.9-.9-.9h-5.4c-.5,0-.9.4-.9.9h0c0,.5-.4.9-.9.9h-1.8c-.5,0-.9.4-.9.9h0c0,.5-.4.9-.9.9h0c-.5,0-.9-.4-.9-.9h0c0-.5-.4-.9-.9-.9h0C.4,23.4,0,23.8,0,24.3v3.6c0,.5.4.9.9.9h0c.5,0,.9.4.9.9h0c0,.5.4.9.9.9h0c.5,0,.9-.4.9-.9v-1.8c0-.5.4-.9.9-.9h0c.5,0,.9-.4.9-.9h0c0-.5.4-.9.9-.9h1.8c.5,0,.9.4.9.9h0c0,.5-.4.9-.9.9h0c-.5,0-.9.4-.9.9v1.8c0,.5.4.9.9.9h0c.5,0,.9.4.9.9h0c0,.5.4.9.9.9Z"/>
    <path class="cls-1" d="m19.8,33.3h0c0,.5.4.9.9.9h1.8c.5,0,.9-.4.9-.9h0c0-.5-.4-.9-.9-.9h0c-.5,0-.9-.4-.9-.9h0c0-.5-.4-.9-.9-.9h-1.8c-.5,0-.9.4-.9.9h0c0,.5.4.9.9.9h0c.5,0,.9.4.9.9Z"/>
    <rect class="cls-1" x="55.8" y="30.6" width="1.8" height="1.8" rx=".9" ry=".9"/>
    <rect class="cls-1" x="10.8" y="32.4" width="1.8" height="1.8" rx=".9" ry=".9"/>
    <path class="cls-1" d="m46.8,31.5h0c0-.5-.4-.9-.9-.9h0c-.5,0-.9.4-.9.9v1.8c0,.5.4.9.9.9h1.8c.5,0,.9-.4.9-.9h0c0-.5-.4-.9-.9-.9h0c-.5,0-.9-.4-.9-.9Z"/>
    <path class="cls-1" d="m52.2,31.5h0c0-.5-.4-.9-.9-.9h-1.8c-.5,0-.9.4-.9.9h0c0,.5.4.9.9.9h0c.5,0,.9.4.9.9h0c0,.5-.4.9-.9.9h0c-.5,0-.9.4-.9.9v1.8c0,.5.4.9.9.9h0c.5,0,.9-.4.9-.9h0c0-.5.4-.9.9-.9h1.8c.5,0,.9-.4.9-.9h0c0-.5.4-.9.9-.9h0c.5,0,.9-.4.9-.9h0c0-.5-.4-.9-.9-.9h-1.8c-.5,0-.9-.4-.9-.9Z"/>
    <path class="cls-1" d="m61.2,32.4h-.9c-.5,0-.9.4-.9.9h0c0,.5.4.9.9.9h0c.5,0,.9.4.9.9h0c0,.5-.4.9-.9.9h0c-.5,0-.9.4-.9.9h0c0,.5.4.9.9.9h1.8c.5,0,.9-.4.9-.9v-1.8c0-.5.4-.9.9-.9h0c.5,0,.9-.4.9-.9v-1.8c0-.5-.4-.9-.9-.9h0c-.5,0-.9.4-.9.9h0c0,.5-.4.9-.9.9h-.9Z"/>
    <rect class="cls-1" x="66.6" y="32.4" width="1.8" height="1.8" rx=".9" ry=".9"/>
    <rect class="cls-1" x="55.8" y="34.2" width="1.8" height="1.8" rx=".9" ry=".9"/>
    <path class="cls-1" d="m86.4,36v.9c0,.5.4.9.9.9h0c.5,0,.9-.4.9-.9v-1.8c0-.5-.4-.9-.9-.9h0c-.5,0-.9.4-.9.9v.9Z"/>
    <path class="cls-1" d="m19.8,36h-.9c-.5,0-.9-.4-.9-.9v-1.8c0-.5-.4-.9-.9-.9h-1.8c-.5,0-.9.4-.9.9h0c0,.5.4.9.9.9h0c.5,0,.9.4.9.9v1.8c0,.5.4.9.9.9h3.6c.5,0,.9-.4.9-.9h0c0-.5-.4-.9-.9-.9h-.9Z"/>
    <path class="cls-1" d="m68.4,36.9h0c0-.5-.4-.9-.9-.9h-1.8c-.5,0-.9.4-.9.9h0c0,.5.4.9.9.9h1.8c.5,0,.9-.4.9-.9Z"/>
    <path class="cls-1" d="m32.4,39.6h.9c.5,0,.9-.4.9-.9h0c0-.5-.4-.9-.9-.9h-1.8c-.5,0-.9.4-.9.9h0c0,.5.4.9.9.9h.9Z"/>
    <path class="cls-1" d="m55.8,37.8h-.9c-.5,0-.9.4-.9.9h0c0,.5.4.9.9.9h0c.5,0,.9.4.9.9h0c0,.5.4.9.9.9h0c.5,0,.9-.4.9-.9h0c0-.5.4-.9.9-.9h0c.5,0,.9-.4.9-.9h0c0-.5-.4-.9-.9-.9h-2.7Z"/>
    <path class="cls-1" d="m50.4,40.5h0c0,.5-.4.9-.9.9h0c-.5,0-.9-.4-.9-.9h0c0-.5-.4-.9-.9-.9h-3.6c-.5,0-.9-.4-.9-.9h0c0-.5.4-.9.9-.9h1.8c.5,0,.9-.4.9-.9h0c0-.5-.4-.9-.9-.9h-1.8c-.5,0-.9-.4-.9-.9h0c0-.5-.4-.9-.9-.9h0c-.5,0-.9.4-.9.9h0c0,.5-.4.9-.9.9h-3.6c-.5,0-.9-.4-.9-.9h0c0-.5-.4-.9-.9-.9h-3.6c-.5,0-.9-.4-.9-.9h0c0-.5-.4-.9-.9-.9h-1.8c-.5,0-.9.4-.9.9h0c0,.5.4.9.9.9h0c.5,0,.9.4.9.9v1.8c0,.5.4.9.9.9h0c.5,0,.9-.4.9-.9h0c0-.5.4-.9.9-.9h1.8c.5,0,.9.4.9.9h0c0,.5.4.9.9.9h0c.5,0,.9.4.9.9h0c0,.5-.4.9-.9.9h0c-.5,0-.9.4-.9.9v1.8c0,.5.4.9.9.9h0c.5,0,.9-.4.9-.9h0c0-.5.4-.9.9-.9h0c.5,0,.9-.4.9-.9h0c0-.5.4-.9.9-.9h0c.5,0,.9-.4.9-.9h0c0-.5.4-.9.9-.9h0c.5,0,.9.4.9.9h0c0,.5-.4.9-.9.9h0c-.5,0-.9.4-.9.9h0c0,.5-.4.9-.9.9h0c-.5,0-.9.4-.9.9h0c0,.5.4.9.9.9h0c.5,0,.9.4.9.9h0c0,.5-.4.9-.9.9h0c-.5,0-.9-.4-.9-.9h0c0-.5-.4-.9-.9-.9h0c-.5,0-.9.4-.9.9h0c0,.5-.4.9-.9.9h-1.8c-.5,0-.9.4-.9.9h0c0,.5.4.9.9.9h1.8c.5,0,.9.4.9.9h0c0,.5.4.9.9.9h0c.5,0,.9.4.9.9h0c0,.5-.4.9-.9.9h0c-.5,0-.9.4-.9.9h0c0,.5.4.9.9.9h0c.5,0,.9.4.9.9h0c0,.5.4.9.9.9h0c.5,0,.9.4.9.9h0c0,.5.4.9.9.9h3.6c.5,0,.9-.4.9-.9h0c0-.5-.4-.9-.9-.9h0c-.5,0-.9-.4-.9-.9v-1.8c0-.5-.4-.9-.9-.9h0c-.5,0-.9.4-.9.9h0c0,.5-.4.9-.9.9h0c-.5,0-.9-.4-.9-.9v-1.8c0-.5.4-.9.9-.9h3.6c.5,0,.9.4.9.9v1.8c0,.5.4.9.9.9h1.8c.5,0,.9-.4.9-.9v-3.6c0-.5.4-.9.9-.9h0c.5,0,.9.4.9.9v1.8c0,.5.4.9.9.9h0c.5,0,.9-.4.9-.9v-1.8c0-.5.4-.9.9-.9h1.8c.5,0,.9.4.9.9h0c0,.5.4.9.9.9h0c.5,0,.9-.4.9-.9v-1.8c0-.5-.4-.9-.9-.9h0c-.5,0-.9-.4-.9-.9h0c0-.5-.4-.9-.9-.9h-1.8c-.5,0-.9.4-.9.9h0c0,.5-.4.9-.9.9h0c-.5,0-.9-.4-.9-.9h0c0-.5.4-.9.9-.9h0c.5,0,.9-.4.9-.9h0c0-.5.4-.9.9-.9h0c.5,0,.9-.4.9-.9h0c0-.5-.4-.9-.9-.9h-1.8c-.5,0-.9.4-.9.9Zm-5.4,6.3h-2.7c-.5,0-.9-.4-.9-.9v-3.6c0-.5.4-.9.9-.9h3.6c.5,0,.9.4.9.9v3.6c0,.5-.4.9-.9.9h-.9Z"/>
    <path class="cls-1" d="m62.1,41.4h0c-.5,0-.9-.4-.9-.9h0c0-.5-.4-.9-.9-.9h0c-.5,0-.9.4-.9.9v7.2c0,.5.4.9.9.9h0c.5,0,.9.4.9.9v1.8c0,.5.4.9.9.9h0c.5,0,.9-.4.9-.9v-3.6c0-.5-.4-.9-.9-.9h0c-.5,0-.9-.4-.9-.9h0c0-.5.4-.9.9-.9h1.8c.5,0,.9-.4.9-.9h0c0-.5-.4-.9-.9-.9h0c-.5,0-.9-.4-.9-.9h0c0-.5-.4-.9-.9-.9Z"/>
    <path class="cls-1" d="m66.6,41.4h-.9c-.5,0-.9.4-.9.9h0c0,.5.4.9.9.9h1.8c.5,0,.9-.4.9-.9h0c0-.5-.4-.9-.9-.9h-.9Z"/>
    <rect class="cls-1" x="10.8" y="43.2" width="1.8" height="1.8" rx=".9" ry=".9"/>
    <path class="cls-1" d="m32.4,43.2v-.9c0-.5-.4-.9-.9-.9h0c-.5,0-.9-.4-.9-.9h0c0-.5-.4-.9-.9-.9h0c-.5,0-.9.4-.9.9v1.8c0,.5.4.9.9.9h0c.5,0,.9.4.9.9h0c0,.5.4.9.9.9h0c.5,0,.9-.4.9-.9v-.9Z"/>
    <rect class="cls-1" x="43.2" y="43.2" width="1.8" height="1.8" rx=".9" ry=".9"/>
    <rect class="cls-1" x="75.6" y="43.2" width="1.8" height="1.8" rx=".9" ry=".9"/>
    <rect class="cls-1" x="57.6" y="48.6" width="1.8" height="1.8" rx=".9" ry=".9"/>
    <path class="cls-1" d="m54,51.3h0c0,.5-.4.9-.9.9h0c-.5,0-.9.4-.9.9h0c0,.5-.4.9-.9.9h0c-.5,0-.9.4-.9.9h0c0,.5-.4.9-.9.9h0c-.5,0-.9-.4-.9-.9h0c0-.5-.4-.9-.9-.9h0c-.5,0-.9.4-.9.9h0c0,.5-.4.9-.9.9h0c-.5,0-.9.4-.9.9h0c0,.5.4.9.9.9h0c.5,0,.9.4.9.9h0c0,.5.4.9.9.9h0c.5,0,.9.4.9.9h0c0,.5.4.9.9.9h0c.5,0,.9.4.9.9h0c0,.5.4.9.9.9h5.4c.5,0,.9-.4.9-.9v-5.4c0-.5-.4-.9-.9-.9h0c-.5,0-.9.4-.9.9h0c0,.5-.4.9-.9.9h-1.8c-.5,0-.9.4-.9.9h0c0,.5.4.9.9.9h0c.5,0,.9.4.9.9h0c0,.5-.4.9-.9.9h0c-.5,0-.9-.4-.9-.9h0c0-.5-.4-.9-.9-.9h0c-.5,0-.9-.4-.9-.9h0c0-.5.4-.9.9-.9h0c.5,0,.9-.4.9-.9h0c0-.5.4-.9.9-.9h0c.5,0,.9-.4.9-.9h0c0-.5.4-.9.9-.9h0c.5,0,.9-.4.9-.9h0c0-.5.4-.9.9-.9h0c.5,0,.9-.4.9-.9h0c0-.5-.4-.9-.9-.9h-1.8c-.5,0-.9.4-.9.9Z"/>
    <rect class="cls-1" x="82.8" y="50.4" width="1.8" height="1.8" rx=".9" ry=".9"/>
    <path class="cls-1" d="m4.5,52.2h0c.5,0,.9-.4.9-.9h0c0-.5-.4-.9-.9-.9h0c-.5,0-.9-.4-.9-.9h0c0-.5-.4-.9-.9-.9h0c-.5,0-.9-.4-.9-.9h0c0-.5.4-.9.9-.9h0c.5,0,.9.4.9.9h0c0,.5.4.9.9.9h0c.5,0,.9.4.9.9h0c0,.5.4.9.9.9h0c.5,0,.9-.4.9-.9h0c0-.5.4-.9.9-.9h0c.5,0,.9.4.9.9h0c0,.5-.4.9-.9.9h0c-.5,0-.9.4-.9.9h0c0,.5.4.9.9.9h3.6c.5,0,.9-.4.9-.9h0c0-.5-.4-.9-.9-.9h0c-.5,0-.9-.4-.9-.9h0c0-.5.4-.9.9-.9h3.6c.5,0,.9.4.9.9h0c0,.5.4.9.9.9h0c.5,0,.9.4.9.9h0c0,.5.4.9.9.9h1.8c.5,0,.9.4.9.9h0c0,.5-.4.9-.9.9h-1.8c-.5,0-.9-.4-.9-.9h0c0-.5-.4-.9-.9-.9h0c-.5,0-.9.4-.9.9h0c0,.5-.4.9-.9.9h0c-.5,0-.9.4-.9.9v1.8c0,.5-.4.9-.9.9h-1.8c-.5,0-.9.4-.9.9h0c0,.5.4.9.9.9h3.6c.5,0,.9-.4.9-.9v-1.8c0-.5.4-.9.9-.9h3.6c.5,0,.9.4.9.9h0c0,.5.4.9.9.9h0c.5,0,.9.4.9.9h0c0,.5.4.9.9.9h0c.5,0,.9.4.9.9h0c0,.5.4.9.9.9h0c.5,0,.9.4.9.9h0c0,.5.4.9.9.9h0c.5,0,.9.4.9.9h0c0,.5.4.9.9.9h1.8c.5,0,.9-.4.9-.9v-3.6c0-.5-.4-.9-.9-.9h0c-.5,0-.9.4-.9.9h0c0,.5-.4.9-.9.9h0c-.5,0-.9-.4-.9-.9v-1.8c0-.5.4-.9.9-.9h0c.5,0,.9-.4.9-.9h0c0-.5-.4-.9-.9-.9h-5.4c-.5,0-.9-.4-.9-.9h0c0-.5.4-.9.9-.9h1.8c.5,0,.9-.4.9-.9h0c0-.5-.4-.9-.9-.9h-1.8c-.5,0-.9-.4-.9-.9h0c0-.5-.4-.9-.9-.9h0c-.5,0-.9-.4-.9-.9h0c0-.5-.4-.9-.9-.9h-1.8c-.5,0-.9-.4-.9-.9h0c0-.5.4-.9.9-.9h1.8c.5,0,.9-.4.9-.9h0c0-.5-.4-.9-.9-.9h0c-.5,0-.9-.4-.9-.9h0c0-.5-.4-.9-.9-.9h0c-.5,0-.9.4-.9.9h0c0,.5-.4.9-.9.9h0c-.5,0-.9-.4-.9-.9h0c0-.5.4-.9.9-.9h0c.5,0,.9-.4.9-.9h0c0-.5.4-.9.9-.9h1.8c.5,0,.9.4.9.9v1.8c0,.5.4.9.9.9h0c.5,0,.9-.4.9-.9h0c0-.5.4-.9.9-.9h0c.5,0,.9.4.9.9h0c0,.5-.4.9-.9.9h0c-.5,0-.9.4-.9.9h0c0,.5-.4.9-.9.9h0c-.5,0-.9.4-.9.9h0c0,.5.4.9.9.9h1.8c.5,0,.9.4.9.9h0c0,.5.4.9.9.9h1.8c.5,0,.9.4.9.9v1.8c0,.5.4.9.9.9h0c.5,0,.9.4.9.9h0c0,.5.4.9.9.9h0c.5,0,.9-.4.9-.9v-3.6c0-.5.4-.9.9-.9h1.8c.5,0,.9-.4.9-.9h0c0-.5-.4-.9-.9-.9h-7.2c-.5,0-.9-.4-.9-.9h0c0-.5.4-.9.9-.9h1.8c.5,0,.9-.4.9-.9h0c0-.5-.4-.9-.9-.9h0c-.5,0-.9-.4-.9-.9h0c0-.5-.4-.9-.9-.9h0c-.5,0-.9-.4-.9-.9h0c0-.5-.4-.9-.9-.9h-1.8c-.5,0-.9-.4-.9-.9h0c0-.5.4-.9.9-.9h3.6c.5,0,.9-.4.9-.9h0c0-.5-.4-.9-.9-.9h0c-.5,0-.9-.4-.9-.9h0c0-.5-.4-.9-.9-.9h-1.8c-.5,0-.9.4-.9.9h0c0,.5-.4.9-.9.9h0c-.5,0-.9.4-.9.9h0c0,.5-.4.9-.9.9h-5.4c-.5,0-.9-.4-.9-.9v-3.6c0-.5-.4-.9-.9-.9h0c-.5,0-.9.4-.9.9h0c0,.5-.4.9-.9.9h0c-.5,0-.9.4-.9.9h0c0,.5.4.9.9.9h0c.5,0,.9.4.9.9h0c0,.5-.4.9-.9.9h0c-.5,0-.9-.4-.9-.9h0c0-.5-.4-.9-.9-.9h0c-.5,0-.9-.4-.9-.9h0c0-.5-.4-.9-.9-.9h0c-.5,0-.9-.4-.9-.9h0c0-.5.4-.9.9-.9h0c.5,0,.9-.4.9-.9h0c0-.5-.4-.9-.9-.9h0c-.5,0-.9-.4-.9-.9h0c0-.5-.4-.9-.9-.9h0c-.5,0-.9.4-.9.9v3.6c0,.5-.4.9-.9.9h-1.8c-.5,0-.9.4-.9.9h0c0,.5-.4.9-.9.9h0c-.5,0-.9.4-.9.9v3.6c0,.5.4.9.9.9h0c.5,0,.9-.4.9-.9v-1.8c0-.5.4-.9.9-.9h1.8c.5,0,.9.4.9.9h0c0,.5.4.9.9.9h0c.5,0,.9.4.9.9v1.8c0,.5-.4.9-.9.9h0c-.5,0-.9-.4-.9-.9v-1.8c0-.5-.4-.9-.9-.9h0c-.5,0-.9.4-.9.9v1.8c0,.5-.4.9-.9.9H.9c-.5,0-.9.4-.9.9v5.4c0,.5.4.9.9.9h0c.5,0,.9.4.9.9v1.8c0,.5.4.9.9.9h0c.5,0,.9-.4.9-.9v-1.8c0-.5.4-.9.9-.9Zm4.5-9v-.9c0-.5.4-.9.9-.9h3.6c.5,0,.9.4.9.9v3.6c0,.5-.4.9-.9.9h-3.6c-.5,0-.9-.4-.9-.9v-2.7Z"/>
    <path class="cls-1" d="m5.4,54v.9c0,.5.4.9.9.9h0c.5,0,.9-.4.9-.9v-1.8c0-.5-.4-.9-.9-.9h0c-.5,0-.9.4-.9.9v.9Z"/>
    <rect class="cls-1" x="34.2" y="52.2" width="1.8" height="1.8" rx=".9" ry=".9"/>
    <path class="cls-1" d="m68.4,52.2h-.9c-.5,0-.9.4-.9.9h0c0,.5.4.9.9.9h1.8c.5,0,.9-.4.9-.9h0c0-.5-.4-.9-.9-.9h-.9Z"/>
    <rect class="cls-1" x="10.8" y="54" width="1.8" height="1.8" rx=".9" ry=".9"/>
    <rect class="cls-1" x="36" y="54" width="1.8" height="1.8" rx=".9" ry=".9"/>
    <rect class="cls-1" x="0" y="55.8" width="1.8" height="1.8" rx=".9" ry=".9"/>
    <rect class="cls-1" x="3.6" y="55.8" width="1.8" height="1.8" rx=".9" ry=".9"/>
    <path class="cls-1" d="m34.2,58.5h0c0,.5.4.9.9.9h0c.5,0,.9-.4.9-.9v-1.8c0-.5-.4-.9-.9-.9h-1.8c-.5,0-.9.4-.9.9h0c0,.5.4.9.9.9h0c.5,0,.9.4.9.9Z"/>
    <path class="cls-1" d="m37.8,57.6v.9c0,.5.4.9.9.9h1.8c.5,0,.9-.4.9-.9h0c0-.5-.4-.9-.9-.9h0c-.5,0-.9-.4-.9-.9h0c0-.5-.4-.9-.9-.9h0c-.5,0-.9.4-.9.9v.9Z"/>
    <rect class="cls-1" x="61.2" y="55.8" width="1.8" height="1.8" rx=".9" ry=".9"/>
    <path class="cls-1" d="m65.7,55.8h0c-.5,0-.9.4-.9.9v1.8c0,.5.4.9.9.9h0c.5,0,.9-.4.9-.9v-1.8c0-.5-.4-.9-.9-.9Z"/>
    <path class="cls-1" d="m73.8,56.7h0c0-.5-.4-.9-.9-.9h0c-.5,0-.9-.4-.9-.9h0c0-.5-.4-.9-.9-.9h0c-.5,0-.9.4-.9.9v3.6c0,.5.4.9.9.9h0c.5,0,.9-.4.9-.9h0c0-.5.4-.9.9-.9h0c.5,0,.9-.4.9-.9Z"/>
    <rect class="cls-1" x="45" y="59.4" width="1.8" height="1.8" rx=".9" ry=".9"/>
    <rect class="cls-1" x="66.6" y="59.4" width="1.8" height="1.8" rx=".9" ry=".9"/>
    <path class="cls-1" d="m72,60.3c0,.5-.4.9-.9.9h-1.8c-.5,0-.9.4-.9.9h0c0,.5.4.9.9.9h3.6c.5,0,.9-.4.9-.9v-1.8c0-.5-.4-.9-.9-.9h0c-.5,0-.9.4-.9.9h0Z"/>
    <path class="cls-1" d="m84.6,60.3h0c0,.5.4.9.9.9h1.8c.5,0,.9-.4.9-.9h0c0-.5-.4-.9-.9-.9h-1.8c-.5,0-.9.4-.9.9Z"/>
    <rect class="cls-1" x="36" y="61.2" width="1.8" height="1.8" rx=".9" ry=".9"/>
    <path class="cls-1" d="m39.6,62.1h0c0,.5.4.9.9.9h3.6c.5,0,.9-.4.9-.9h0c0-.5-.4-.9-.9-.9h0c-.5,0-.9-.4-.9-.9h0c0-.5-.4-.9-.9-.9h0c-.5,0-.9.4-.9.9h0c0,.5-.4.9-.9.9h0c-.5,0-.9.4-.9.9Z"/>
    <path class="cls-1" d="m5.4,63.9c0-.5.4-.9.9-.9h5.4c.5,0,.9.4.9.9h0c0,.5.4.9.9.9h0c.5,0,.9.4.9.9h0c0,.5.4.9.9.9h0c.5,0,.9-.4.9-.9h0c0-.5.4-.9.9-.9h0c.5,0,.9-.4.9-.9h0c0-.5-.4-.9-.9-.9h0c-.5,0-.9-.4-.9-.9h0c0-.5-.4-.9-.9-.9h-3.6c-.5,0-.9-.4-.9-.9h0c0-.5-.4-.9-.9-.9h0c-.5,0-.9.4-.9.9h0c0,.5-.4.9-.9.9h0c-.5,0-.9-.4-.9-.9h0c0-.5.4-.9.9-.9h0c.5,0,.9-.4.9-.9h0c0-.5-.4-.9-.9-.9h-1.8c-.5,0-.9.4-.9.9h0c0,.5-.4.9-.9.9h-1.8c-.5,0-.9.4-.9.9h0c0,.5.4.9.9.9h0c.5,0,.9.4.9.9h0c0,.5-.4.9-.9.9h0c-.5,0-.9.4-.9.9h0c0,.5-.4.9-.9.9h0c-.5,0-.9.4-.9.9H0c0,.5.4.9.9.9h3.6c.5,0,.9-.4.9-.9v-1.8Z"/>
    <rect class="cls-1" x="34.2" y="63" width="1.8" height="1.8" rx=".9" ry=".9"/>
    <path class="cls-1" d="m45.9,63h0c-.5,0-.9.4-.9.9h0c0,.5-.4.9-.9.9h0c-.5,0-.9.4-.9.9h0c0,.5-.4.9-.9.9h-1.8c-.5,0-.9-.4-.9-.9v-1.8c0-.5-.4-.9-.9-.9h0c-.5,0-.9.4-.9.9v1.8c0,.5-.4.9-.9.9h0c-.5,0-.9.4-.9.9v1.8c0,.5.4.9.9.9h0c.5,0,.9-.4.9-.9h0c0-.5.4-.9.9-.9h0c.5,0,.9.4.9.9h0c0,.5.4.9.9.9h0c.5,0,.9-.4.9-.9h0c0-.5.4-.9.9-.9h0c.5,0,.9.4.9.9h0c0,.5.4.9.9.9h0c.5,0,.9-.4.9-.9v-1.8c0-.5.4-.9.9-.9h1.8c.5,0,.9-.4.9-.9h0c0-.5-.4-.9-.9-.9h0c-.5,0-.9-.4-.9-.9h0c0-.5-.4-.9-.9-.9Z"/>
    <rect class="cls-1" x="48.6" y="63" width="1.8" height="1.8" rx=".9" ry=".9"/>
    <rect class="cls-1" x="57.6" y="63" width="1.8" height="1.8" rx=".9" ry=".9"/>
    <path class="cls-1" d="m61.2,64.8v.9c0,.5-.4.9-.9.9h-3.6c-.5,0-.9.4-.9.9v3.6c0,.5-.4.9-.9.9h0c-.5,0-.9.4-.9.9h0c0,.5.4.9.9.9h0c.5,0,.9.4.9.9v1.8c0,.5.4.9.9.9h0c.5,0,.9-.4.9-.9v-1.8c0-.5.4-.9.9-.9h0c.5,0,.9-.4.9-.9h0c0-.5-.4-.9-.9-.9h0c-.5,0-.9-.4-.9-.9v-1.8c0-.5.4-.9.9-.9h3.6c.5,0,.9-.4.9-.9h0c0-.5.4-.9.9-.9h0c.5,0,.9.4.9.9h0c0,.5.4.9.9.9h1.8c.5,0,.9-.4.9-.9h0c0-.5.4-.9.9-.9h1.8c.5,0,.9-.4.9-.9h0c0-.5-.4-.9-.9-.9h-5.4c-.5,0-.9-.4-.9-.9h0c0-.5-.4-.9-.9-.9h0c-.5,0-.9-.4-.9-.9h0c0-.5-.4-.9-.9-.9h-1.8c-.5,0-.9.4-.9.9h0c0,.5.4.9.9.9h0c.5,0,.9.4.9.9v.9Z"/>
    <rect class="cls-1" x="81" y="63" width="1.8" height="1.8" rx=".9" ry=".9"/>
    <path class="cls-1" d="m86.4,64.8v2.7c0,.5.4.9.9.9h0c.5,0,.9-.4.9-.9v-3.6c0-.5-.4-.9-.9-.9h0c-.5,0-.9.4-.9.9v.9Z"/>
    <rect class="cls-1" x="18" y="64.8" width="1.8" height="1.8" rx=".9" ry=".9"/>
    <rect class="cls-1" x="50.4" y="64.8" width="1.8" height="1.8" rx=".9" ry=".9"/>
    <path class="cls-1" d="m79.2,66.6h.9c.5,0,.9-.4.9-.9h0c0-.5-.4-.9-.9-.9h0c-.5,0-.9-.4-.9-.9h0c0-.5-.4-.9-.9-.9h0c-.5,0-.9.4-.9.9h0c0,.5-.4.9-.9.9h0c-.5,0-.9.4-.9.9h0c0,.5.4.9.9.9h2.7Z"/>
    <rect class="cls-1" x="82.8" y="64.8" width="1.8" height="1.8" rx=".9" ry=".9"/>
    <path class="cls-1" d="m73.8,69.3h0c0,.5.4.9.9.9h0c.5,0,.9.4.9.9h0c0,.5-.4.9-.9.9h0c-.5,0-.9-.4-.9-.9h0c0-.5-.4-.9-.9-.9h0c-.5,0-.9.4-.9.9v1.8c0,.5-.4.9-.9.9h0c-.5,0-.9.4-.9.9v1.8c0,.5.4.9.9.9h0c.5,0,.9.4.9.9v1.8c0,.5.4.9.9.9h0c.5,0,.9.4.9.9h0c0,.5.4.9.9.9h1.8c.5,0,.9-.4.9-.9h0c0-.5.4-.9.9-.9h1.8c.5,0,.9-.4.9-.9v-3.6c0-.5.4-.9.9-.9h0c.5,0,.9-.4.9-.9v-1.8c0-.5.4-.9.9-.9h3.6c.5,0,.9-.4.9-.9h0c0-.5-.4-.9-.9-.9h-1.8c-.5,0-.9-.4-.9-.9h0c0-.5-.4-.9-.9-.9h0c-.5,0-.9-.4-.9-.9h0c0-.5-.4-.9-.9-.9h0c-.5,0-.9.4-.9.9v3.6c0,.5-.4.9-.9.9h0c-.5,0-.9-.4-.9-.9h0c0-.5-.4-.9-.9-.9h0c-.5,0-.9-.4-.9-.9h0c0-.5-.4-.9-.9-.9h0c-.5,0-.9-.4-.9-.9h0c0-.5-.4-.9-.9-.9h-1.8c-.5,0-.9.4-.9.9h0c0,.5.4.9.9.9h0c.5,0,.9.4.9.9Zm5.4,6.3v2.7c0,.5-.4.9-.9.9h-3.6c-.5,0-.9-.4-.9-.9v-3.6c0-.5.4-.9.9-.9h3.6c.5,0,.9.4.9.9v.9Z"/>
    <path class="cls-1" d="m2.7,68.4c-.5,0-.9.4-.9.9v1.8c0,.5-.4.9-.9.9h0c-.5,0-.9.4-.9.9H0c0,.5.4.9.9.9h3.6c.5,0,.9-.4.9-.9h0c0-.5.4-.9.9-.9h0c.5,0,.9-.4.9-.9h0c0-.5-.4-.9-.9-.9h-1.8c-.5,0-.9-.4-.9-.9h0c0-.5-.4-.9-.9-.9h0Z"/>
    <path class="cls-1" d="m10.8,67.5h0c0-.5.4-.9.9-.9h0c.5,0,.9-.4.9-.9h0c0-.5-.4-.9-.9-.9h-1.8c-.5,0-.9.4-.9.9h0c0,.5-.4.9-.9.9h-1.8c-.5,0-.9.4-.9.9h0c0,.5.4.9.9.9h1.8c.5,0,.9.4.9.9h0c0,.5.4.9.9.9h1.8c.5,0,.9-.4.9-.9h0c0-.5-.4-.9-.9-.9h0c-.5,0-.9-.4-.9-.9Z"/>
    <rect class="cls-1" x="16.2" y="68.4" width="1.8" height="1.8" rx=".9" ry=".9"/>
    <path class="cls-1" d="m29.7,68.4h0c-.5,0-.9-.4-.9-.9h0c0-.5-.4-.9-.9-.9h0c-.5,0-.9-.4-.9-.9h0c0-.5-.4-.9-.9-.9h0c-.5,0-.9-.4-.9-.9h0c0-.5-.4-.9-.9-.9h0c-.5,0-.9-.4-.9-.9h0c0-.5-.4-.9-.9-.9h0c-.5,0-.9-.4-.9-.9v-1.8c0-.5-.4-.9-.9-.9h-1.8c-.5,0-.9.4-.9.9h0c0,.5-.4.9-.9.9h0c-.5,0-.9.4-.9.9h0c0,.5.4.9.9.9h1.8c.5,0,.9.4.9.9h0c0,.5.4.9.9.9h0c.5,0,.9.4.9.9v1.8c0,.5.4.9.9.9h1.8c.5,0,.9.4.9.9h0c0,.5.4.9.9.9h0c.5,0,.9.4.9.9h0c0,.5.4.9.9.9h0c.5,0,.9.4.9.9h0c0,.5.4.9.9.9h0c.5,0,.9-.4.9-.9v-1.8c0-.5-.4-.9-.9-.9Z"/>
    <path class="cls-1" d="m70.2,70.2h.9c.5,0,.9-.4.9-.9h0c0-.5-.4-.9-.9-.9h-1.8c-.5,0-.9.4-.9.9h0c0,.5.4.9.9.9h.9Z"/>
    <rect class="cls-1" x="18" y="70.2" width="1.8" height="1.8" rx=".9" ry=".9"/>
    <path class="cls-1" d="m23.4,69.3h0c0-.5-.4-.9-.9-.9h0c-.5,0-.9-.4-.9-.9h0c0-.5-.4-.9-.9-.9h0c-.5,0-.9.4-.9.9v1.8c0,.5.4.9.9.9h0c.5,0,.9.4.9.9h0c0,.5.4.9.9.9h1.8c.5,0,.9.4.9.9h0c0,.5.4.9.9.9h0c.5,0,.9-.4.9-.9v-1.8c0-.5-.4-.9-.9-.9h-1.8c-.5,0-.9-.4-.9-.9Z"/>
    <rect class="cls-1" x="34.2" y="70.2" width="1.8" height="1.8" rx=".9" ry=".9"/>
    <path class="cls-1" d="m64.8,70.2h-2.7c-.5,0-.9.4-.9.9v1.8c0,.5.4.9.9.9h0c.5,0,.9-.4.9-.9h0c0-.5.4-.9.9-.9h0c.5,0,.9.4.9.9h0c0,.5.4.9.9.9h1.8c.5,0,.9-.4.9-.9v-1.8c0-.5-.4-.9-.9-.9h-2.7Z"/>
    <path class="cls-1" d="m17.1,72h0c-.5,0-.9-.4-.9-.9h0c0-.5-.4-.9-.9-.9h-1.8c-.5,0-.9.4-.9.9h0c0,.5-.4.9-.9.9h0c-.5,0-.9.4-.9.9h0c0,.5.4.9.9.9h1.8c.5,0,.9.4.9.9h0c0,.5.4.9.9.9h3.6c.5,0,.9-.4.9-.9h0c0-.5-.4-.9-.9-.9h0c-.5,0-.9-.4-.9-.9h0c0-.5-.4-.9-.9-.9Z"/>
    <rect class="cls-1" x="19.8" y="72" width="1.8" height="1.8" rx=".9" ry=".9"/>
    <path class="cls-1" d="m52.2,72v-2.7c0-.5-.4-.9-.9-.9h-3.6c-.5,0-.9.4-.9.9h0c0,.5-.4.9-.9.9h0c-.5,0-.9.4-.9.9h0c0,.5-.4.9-.9.9h-3.6c-.5,0-.9-.4-.9-.9h0c0-.5-.4-.9-.9-.9h0c-.5,0-.9.4-.9.9h0c0,.5-.4.9-.9.9h0c-.5,0-.9.4-.9.9h0c0,.5-.4.9-.9.9h0c-.5,0-.9-.4-.9-.9h0c0-.5-.4-.9-.9-.9h-1.8c-.5,0-.9.4-.9.9h0c0,.5.4.9.9.9h0c.5,0,.9.4.9.9h0c0,.5.4.9.9.9h1.8c.5,0,.9.4.9.9h0c0,.5.4.9.9.9h0c.5,0,.9-.4.9-.9h0c0-.5.4-.9.9-.9h0c.5,0,.9.4.9.9h0c0,.5-.4.9-.9.9h0c-.5,0-.9.4-.9.9v1.8c0,.5.4.9.9.9h1.8c.5,0,.9.4.9.9h0c0,.5.4.9.9.9h0c.5,0,.9-.4.9-.9h0c0-.5.4-.9.9-.9h1.8c.5,0,.9.4.9.9h0c0,.5-.4.9-.9.9h-1.8c-.5,0-.9.4-.9.9h0c0,.5.4.9.9.9h0c.5,0,.9.4.9.9h0c0,.5-.4.9-.9.9h0c-.5,0-.9-.4-.9-.9h0c0-.5-.4-.9-.9-.9h0c-.5,0-.9-.4-.9-.9h0c0-.5-.4-.9-.9-.9h0c-.5,0-.9.4-.9.9h0c0,.5-.4.9-.9.9h0c-.5,0-.9.4-.9.9h0c0,.5.4.9.9.9h1.8c.5,0,.9.4.9.9h0c0,.5.4.9.9.9h5.4c.5,0,.9-.4.9-.9h0c0-.5-.4-.9-.9-.9h0c-.5,0-.9-.4-.9-.9h0c0-.5.4-.9.9-.9h0c.5,0,.9-.4.9-.9h0c0-.5.4-.9.9-.9h0c.5,0,.9.4.9.9h0c0,.5.4.9.9.9h0c.5,0,.9-.4.9-.9v-3.6c0-.5-.4-.9-.9-.9h0c-.5,0-.9.4-.9.9h0c0,.5-.4.9-.9.9h0c-.5,0-.9-.4-.9-.9h0c0-.5.4-.9.9-.9h0c.5,0,.9-.4.9-.9h0c0-.5-.4-.9-.9-.9h0c-.5,0-.9-.4-.9-.9v-3.6c0-.5.4-.9.9-.9h0c.5,0,.9.4.9.9v3.6c0,.5.4.9.9.9h1.8c.5,0,.9-.4.9-.9v-1.8c0-.5-.4-.9-.9-.9h0c-.5,0-.9-.4-.9-.9v-.9Zm-5.4,3.6v2.7c0,.5-.4.9-.9.9h-3.6c-.5,0-.9-.4-.9-.9v-3.6c0-.5.4-.9.9-.9h3.6c.5,0,.9.4.9.9v.9Z"/>
    <rect class="cls-1" x="59.4" y="73.8" width="1.8" height="1.8" rx=".9" ry=".9"/>
    <rect class="cls-1" x="63" y="73.8" width="1.8" height="1.8" rx=".9" ry=".9"/>
    <path class="cls-1" d="m25.2,78.3h0c0,.5.4.9.9.9h0c.5,0,.9-.4.9-.9v-1.8c0-.5-.4-.9-.9-.9h0c-.5,0-.9-.4-.9-.9h0c0-.5-.4-.9-.9-.9h-1.8c-.5,0-.9.4-.9.9v1.8c0,.5.4.9.9.9h1.8c.5,0,.9.4.9.9Z"/>
    <rect class="cls-1" x="43.2" y="75.6" width="1.8" height="1.8" rx=".9" ry=".9"/>
    <rect class="cls-1" x="75.6" y="75.6" width="1.8" height="1.8" rx=".9" ry=".9"/>
    <path class="cls-1" d="m33.3,79.2h0c-.5,0-.9-.4-.9-.9h0c0-.5-.4-.9-.9-.9h0c-.5,0-.9-.4-.9-.9h0c0-.5-.4-.9-.9-.9h0c-.5,0-.9.4-.9.9v3.6c0,.5-.4.9-.9.9h-3.6c-.5,0-.9-.4-.9-.9h0c0-.5-.4-.9-.9-.9h0c-.5,0-.9-.4-.9-.9h0c0-.5-.4-.9-.9-.9h0c-.5,0-.9.4-.9.9v1.8c0,.5.4.9.9.9h0c.5,0,.9.4.9.9h0c0,.5.4.9.9.9h3.6c.5,0,.9.4.9.9h0c0,.5.4.9.9.9h0c.5,0,.9.4.9.9h0c0,.5.4.9.9.9h0c.5,0,.9-.4.9-.9v-1.8c0-.5.4-.9.9-.9h1.8c.5,0,.9-.4.9-.9h0c0-.5.4-.9.9-.9h0c.5,0,.9-.4.9-.9v-1.8c0-.5-.4-.9-.9-.9h0c-.5,0-.9.4-.9.9h0c0,.5-.4.9-.9.9Z"/>
    <path class="cls-1" d="m82.8,79.2v.9c0,.5.4.9.9.9h0c.5,0,.9-.4.9-.9v-1.8c0-.5.4-.9.9-.9h0c.5,0,.9-.4.9-.9h0c0-.5-.4-.9-.9-.9h-1.8c-.5,0-.9.4-.9.9v2.7Z"/>
    <path class="cls-1" d="m18,79.2v-.9c0-.5-.4-.9-.9-.9h-1.8c-.5,0-.9.4-.9.9v1.8c0,.5.4.9.9.9h0c.5,0,.9.4.9.9h0c0,.5.4.9.9.9h0c.5,0,.9-.4.9-.9v-2.7Z"/>
    <path class="cls-1" d="m69.3,79.2c-.5,0-.9-.4-.9-.9v-1.8c0-.5-.4-.9-.9-.9h0c-.5,0-.9.4-.9.9h0c0,.5-.4.9-.9.9h-7.2c-.5,0-.9.4-.9.9v1.8c0,.5-.4.9-.9.9h-1.8c-.5,0-.9.4-.9.9h0c0,.5.4.9.9.9h0c.5,0,.9.4.9.9v1.8c0,.5.4.9.9.9h0c.5,0,.9-.4.9-.9v-1.8c0-.5.4-.9.9-.9h0c.5,0,.9-.4.9-.9v-1.8c0-.5.4-.9.9-.9h5.4c.5,0,.9.4.9.9h0c0,.5.4.9.9.9h1.8c.5,0,.9-.4.9-.9h0c0-.5-.4-.9-.9-.9h0Z"/>
    <path class="cls-1" d="m85.5,81h0c-.5,0-.9.4-.9.9h0c0,.5-.4.9-.9.9h0c-.5,0-.9-.4-.9-.9h0c0-.5-.4-.9-.9-.9h0c-.5,0-.9.4-.9.9v3.6c0,.5-.4.9-.9.9h0c-.5,0-.9.4-.9.9h0c0,.5.4.9.9.9h1.8c.5,0,.9-.4.9-.9v-1.8c0-.5.4-.9.9-.9h1.8c.5,0,.9-.4.9-.9h0c0-.5.4-.9.9-.9h0c.5,0,.9-.4.9-.9v-3.6c0-.5-.4-.9-.9-.9h0c-.5,0-.9.4-.9.9v1.8c0,.5-.4.9-.9.9Z"/>
    <path class="cls-1" d="m69.3,82.8h0c-.5,0-.9.4-.9.9h0c0,.5.4.9.9.9h0c.5,0,.9.4.9.9v1.8c0,.5.4.9.9.9h0c.5,0,.9-.4.9-.9h0c0-.5.4-.9.9-.9h1.8c.5,0,.9-.4.9-.9h0c0-.5-.4-.9-.9-.9h-1.8c-.5,0-.9-.4-.9-.9v-1.8c0-.5-.4-.9-.9-.9h0c-.5,0-.9.4-.9.9h0c0,.5-.4.9-.9.9Z"/>
    <rect class="cls-1" x="18" y="82.8" width="1.8" height="1.8" rx=".9" ry=".9"/>
    <rect class="cls-1" x="36" y="82.8" width="1.8" height="1.8" rx=".9" ry=".9"/>
    <rect class="cls-1" x="59.4" y="82.8" width="1.8" height="1.8" rx=".9" ry=".9"/>
    <path class="cls-1" d="m63.9,84.6h0c.5,0,.9-.4.9-.9v-1.8c0-.5-.4-.9-.9-.9h-1.8c-.5,0-.9.4-.9.9h0c0,.5.4.9.9.9h0c.5,0,.9.4.9.9h0c0,.5.4.9.9.9Z"/>
    <path class="cls-1" d="m15.3,84.6h0c-.5,0-.9.4-.9.9v1.8c0,.5.4.9.9.9h1.8c.5,0,.9-.4.9-.9h0c0-.5-.4-.9-.9-.9h0c-.5,0-.9-.4-.9-.9h0c0-.5-.4-.9-.9-.9Z"/>
    <rect class="cls-1" x="19.8" y="84.6" width="1.8" height="1.8" rx=".9" ry=".9"/>
    <path class="cls-1" d="m25.2,84.6h-.9c-.5,0-.9.4-.9.9h0c0,.5-.4.9-.9.9h0c-.5,0-.9.4-.9.9h0c0,.5.4.9.9.9h1.8c.5,0,.9-.4.9-.9h0c0-.5.4-.9.9-.9h0c.5,0,.9-.4.9-.9h0c0-.5-.4-.9-.9-.9h-.9Z"/>
    <rect class="cls-1" x="48.6" y="84.6" width="1.8" height="1.8" rx=".9" ry=".9"/>
    <path class="cls-1" d="m61.2,86.4v.9c0,.5.4.9.9.9h0c.5,0,.9-.4.9-.9v-1.8c0-.5-.4-.9-.9-.9h0c-.5,0-.9.4-.9.9v.9Z"/>
    <path class="cls-1" d="m65.7,86.4h0c-.5,0-.9.4-.9.9h0c0,.5.4.9.9.9h1.8c.5,0,.9-.4.9-.9v-1.8c0-.5-.4-.9-.9-.9h0c-.5,0-.9.4-.9.9h0c0,.5-.4.9-.9.9Z"/>
    <rect class="cls-1" x="27" y="86.4" width="1.8" height="1.8" rx=".9" ry=".9"/>
    <path class="cls-1" d="m50.4,87.3h0c0,.5.4.9.9.9h1.8c.5,0,.9-.4.9-.9v-1.8c0-.5-.4-.9-.9-.9h0c-.5,0-.9.4-.9.9h0c0,.5-.4.9-.9.9h0c-.5,0-.9.4-.9.9Z"/>
    <path class="cls-1" d="m84.6,87.3h0c0,.5.4.9.9.9h1.8c.5,0,.9-.4.9-.9v-1.8c0-.5-.4-.9-.9-.9h0c-.5,0-.9.4-.9.9h0c0,.5-.4.9-.9.9h0c-.5,0-.9.4-.9.9Z"/>
    <path class="cls-1" d="m1.8,12.6h9c.99,0,1.8-.81,1.8-1.8h0V1.8h0c0-1-.81-1.8-1.8-1.8H1.8C.81,0,0,.81,0,1.8h0v9h0c0,1,.81,1.8,1.8,1.8Zm0-3.6V3.6h0c0-.99.81-1.8,1.8-1.8h5.4c.99,0,1.8.81,1.8,1.8h0v5.4h0c0,.99-.81,1.8-1.8,1.8H3.6c-.99,0-1.8-.81-1.8-1.8h0Z"/>
    <path class="cls-1" d="m5.4,9h1.8c.99,0,1.8-.81,1.8-1.8h0v-1.8h0c0-1-.81-1.8-1.8-1.8h-1.8c-.99,0-1.8.81-1.8,1.8h0v1.8h0c0,1,.81,1.8,1.8,1.8Z"/>
    <path class="cls-1" d="m86.4,0h-9c-.99,0-1.8.81-1.8,1.8h0v9h0c0,1,.81,1.8,1.8,1.8h9c.99,0,1.8-.81,1.8-1.8h0V1.8h0c0-1-.81-1.8-1.8-1.8Zm0,3.6v5.4h0c0,.99-.81,1.8-1.8,1.8h-5.4c-.99,0-1.8-.81-1.8-1.8h0V3.6h0c0-.99.81-1.8,1.8-1.8h5.4c.99,0,1.8.81,1.8,1.8h0Z"/>
    <path class="cls-1" d="m82.8,3.6h-1.8c-.99,0-1.8.81-1.8,1.8h0v1.8h0c0,1,.81,1.8,1.8,1.8h1.8c.99,0,1.8-.81,1.8-1.8h0v-1.8h0c0-1-.81-1.8-1.8-1.8Z"/>
    <path class="cls-1" d="m10.8,75.6H1.8c-.99,0-1.8.81-1.8,1.8h0v9h0c0,1,.81,1.8,1.8,1.8h9c.99,0,1.8-.81,1.8-1.8h0v-9h0c0-1-.81-1.8-1.8-1.8Zm0,3.6v5.4h0c0,.99-.81,1.8-1.8,1.8H3.6c-.99,0-1.8-.81-1.8-1.8h0v-5.4h0c0-.99.81-1.8,1.8-1.8h5.4c.99,0,1.8.81,1.8,1.8h0Z"/>
    <path class="cls-1" d="m7.2,79.2h-1.8c-.99,0-1.8.81-1.8,1.8h0v1.8h0c0,1,.81,1.8,1.8,1.8h1.8c.99,0,1.8-.81,1.8-1.8h0v-1.8h0c0-1-.81-1.8-1.8-1.8Z"/>
    <path class="cls-1" d="m83.7,16.2h3.6c.5,0,.9-.4.9-.9h0c0-.5-.4-.9-.9-.9h-5.4c-.5,0-.9.4-.9.9h0c0,.5-.4.9-.9.9h0c-.5,0-.9-.4-.9-.9h0c0-.5-.4-.9-.9-.9h0c-.5,0-.9.4-.9.9v1.8c0,.5-.4.9-.9.9h0c-.5,0-.9.4-.9.9h0c0,.5.4.9.9.9h1.8c.5,0,.9-.4.9-.9h0c0-.5.4-.9.9-.9h0c.5,0,.9.4.9.9h0c0,.5.4.9.9.9h0c.5,0,.9.4.9.9h0c0,.5-.4.9-.9.9h-1.8c-.5,0-.9.4-.9.9h0c0,.5-.4.9-.9.9h0c-.5,0-.9.4-.9.9h0c0,.5-.4.9-.9.9h-1.8c-.5,0-.9-.4-.9-.9v-1.8c0-.5.4-.9.9-.9h0c.5,0,.9-.4.9-.9h0c0-.5-.4-.9-.9-.9h0c-.5,0-.9-.4-.9-.9h0c0-.5-.4-.9-.9-.9h0c-.5,0-.9.4-.9.9v3.6c0,.5-.4.9-.9.9h-3.6c-.5,0-.9.4-.9.9v1.8c0,.5-.4.9-.9.9h-1.8c-.5,0-.9-.4-.9-.9h0c0-.5-.4-.9-.9-.9h0c-.5,0-.9.4-.9.9h0c0,.5-.4.9-.9.9h-1.8c-.5,0-.9.4-.9.9h0c0,.5.4.9.9.9h0c.5,0,.9.4.9.9h0c0,.5.4.9.9.9h1.8c.5,0,.9-.4.9-.9h0c0-.5.4-.9.9-.9h0c.5,0,.9.4.9.9h0c0,.5.4.9.9.9h1.8c.5,0,.9.4.9.9h0c0,.5.4.9.9.9h0c.5,0,.9.4.9.9h0c0,.5.4.9.9.9h0c.5,0,.9.4.9.9h0c0,.5-.4.9-.9.9h0c-.5,0-.9.4-.9.9v1.8c0,.5-.4.9-.9.9h0c-.5,0-.9.4-.9.9h0c0,.5.4.9.9.9s.9.4.9.9h0c0,.5-.4.9-.9.9s-.9.4-.9.9v1.8c0,.5.4.9.9.9s.9-.4.9-.9h0c0-.5.4-.9.9-.9h0c.5,0,.9.4.9.9h0c0,.5-.4.9-.9.9h0c-.5,0-.9.4-.9.9v1.8c0,.5.4.9.9.9h0c.5,0,.9-.4.9-.9h0c0-.5.4-.9.9-.9s.9.4.9.9h0c0,.5-.4.9-.9.9s-.9.4-.9.9v1.8c0,.5.4.9.9.9s.9-.4.9-.9h0c0-.5.4-.9.9-.9s.9.4.9.9h0c0,.5-.4.9-.9.9s-.9.4-.9.9h0c0,.5.4.9.9.9s.9.4.9.9h0c0,.5-.4.9-.9.9s-.9.4-.9.9h0c0,.5.4.9.9.9s.9.4.9.9h0c0,.5.4.9.9.9h3.6c.5,0,.9-.4.9-.9h0c0-.5.4-.9.9-.9s.9-.4.9-.9h0c0-.5-.4-.9-.9-.9h-1.8c-.5,0-.9.4-.9.9h0c0,.5-.4.9-.9.9s-.9-.4-.9-.9v-1.8c0-.5.4-.9.9-.9h7.2c.5,0,.9.4.9.9h0c0,.5.4.9.9.9s.9-.4.9-.9v-7.2c0-.5-.4-.9-.9-.9s-.9.4-.9.9v1.8c0,.5-.4.9-.9.9s-.9.4-.9.9h0c0,.5-.4.9-.9.9s-.9-.4-.9-.9h0c0-.5-.4-.9-.9-.9s-.9.4-.9.9h0c0,.5-.4.9-.9.9h0c-.5,0-.9-.4-.9-.9h0c0-.5-.4-.9-.9-.9s-.9-.4-.9-.9h0c0-.5.4-.9.9-.9s.9-.4.9-.9h0c0-.5.4-.9.9-.9h3.6c.5,0,.9-.4.9-.9h0c0-.5-.4-.9-.9-.9s-.9-.4-.9-.9v-1.8c0-.5-.4-.9-.9-.9s-.9-.4-.9-.9h0c0-.5.4-.9.9-.9s.9.4.9.9h0c0,.5.4.9.9.9s.9.4.9.9v1.8c0,.5.4.9.9.9s.9-.4.9-.9h0c0-.5.4-.9.9-.9s.9-.4.9-.9h0c0-.5-.4-.9-.9-.9s-.9-.4-.9-.9v-1.8h0c0-.5-.4-.9-.9-.9h-1.8c-.5,0-.9-.4-.9-.9v-3.6c0-.5.4-.9.9-.9h0c.5,0,.9-.4.9-.9h0c0-.5-.4-.9-.9-.9h0c-.5,0-.9-.4-.9-.9h0c0-.5-.4-.9-.9-.9h0c-.5,0-.9-.4-.9-.9h0c0-.5.4-.9.9-.9h0c.5,0,.9-.4.9-.9h0c0-.5.4-.9.9-.9h0c.5,0,.9-.4.9-.9h0c0-.5-.4-.9-.9-.9h-1.8c-.5,0-.9.4-.9.9h0c0,.5-.4.9-.9.9h0c-.5,0-.9-.4-.9-.9h0c0-.5.4-.9.9-.9h0c.5,0,.9-.4.9-.9h0c0-.5.4-.9.9-.9h1.8c.5,0,.9-.4.9-.9v-3.6c0-.5-.4-.9-.9-.9h0c-.5,0-.9-.4-.9-.9h0c0-.5.4-.9.9-.9Zm-4.5,27v2.7c0,.5-.4.9-.9.9h-3.6c-.5,0-.9-.4-.9-.9v-3.6c0-.5.4-.9.9-.9h3.6c.5,0,.9.4.9.9v.9Zm-1.8-4.5h0c0-.5.4-.9.9-.9h0c.5,0,.9.4.9.9h0c0,.5-.4.9-.9.9h0c-.5,0-.9-.4-.9-.9Zm2.7-6.3h0c.5,0,.9.4.9.9s-.4.9-.9.9h0c-.5,0-.9.4-.9.9h0c0,.5-.4.9-.9.9h-3.6c-.5,0-.9-.4-.9-.9h0c0-.5.4-.9.9-.9h3.6c.5,0,.9-.4.9-.9s-.4-.9-.9-.9-.9-.4-.9-.9v-1.8c0-.5-.4-.9-.9-.9h-1.8c-.5,0-.9.4-.9.9s.4.9.9.9.9.4.9.9-.4.9-.9.9h-1.8c-.5,0-.9-.4-.9-.9v-1.8c0-.5-.4-.9-.9-.9h-1.8c-.5,0-.9-.4-.9-.9s.4-.9.9-.9h1.8c.5,0,.9.4.9.9s.4.9.9.9.9-.4.9-.9.4-.9.9-.9h1.8c.5,0,.9.4.9.9s.4.9.9.9.9.4.9.9v1.8c0,.5.4.9.9.9Z"/>
  </g>
</svg>